<?xml version="1.0" standalone="no"?>
<!DOCTYPE svg PUBLIC "-//W3C//DTD SVG 20010904//EN"
 "http://www.w3.org/TR/2001/REC-SVG-20010904/DTD/svg10.dtd">
<svg version="1.0" xmlns="http://www.w3.org/2000/svg"
 width="1000.000000pt" height="1000.000000pt" viewBox="0 0 1000.000000 1000.000000"
 preserveAspectRatio="xMidYMid meet">
<metadata>
Created by potrace 1.11, written by Peter Selinger 2001-2013
</metadata>
<g transform="translate(0.000000,1000.000000) scale(0.100000,-0.100000)"
fill="#000000" stroke="none">
<path d="M5010 9821 c0 -5 -55 -9 -122 -9 -68 -1 -125 -2 -128 -3 -3 -1 -30
-2 -60 -3 -30 -1 -60 -4 -65 -7 -6 -3 -29 -5 -52 -4 -24 0 -43 -2 -43 -5 0 -3
-15 -5 -32 -4 -18 1 -37 0 -42 -4 -5 -3 -23 -6 -40 -8 -44 -3 -112 -13 -164
-25 -25 -5 -47 -7 -50 -4 -3 2 -11 0 -19 -6 -7 -6 -22 -9 -32 -6 -11 3 -21 1
-23 -3 -3 -9 -61 -22 -95 -21 -13 0 -23 -3 -23 -8 0 -5 -8 -8 -17 -7 -10 2
-52 -8 -93 -20 -42 -13 -86 -25 -98 -27 -12 -2 -25 -6 -28 -10 -4 -4 -18 -7
-30 -7 -13 0 -26 -5 -29 -10 -4 -6 -10 -8 -15 -5 -5 3 -17 1 -27 -4 -14 -8
-141 -52 -163 -56 -24 -5 -117 -37 -167 -58 -34 -14 -64 -22 -67 -19 -3 3 -6
-1 -6 -8 0 -7 -3 -11 -6 -8 -5 6 -75 -21 -197 -75 -31 -14 -60 -26 -62 -26 -3
-1 -32 -14 -65 -31 -33 -17 -60 -28 -60 -25 0 3 -9 -3 -20 -13 -12 -9 -23 -16
-26 -14 -3 2 -25 -8 -49 -23 -25 -14 -45 -22 -45 -18 0 4 -5 0 -11 -10 -6 -9
-14 -15 -20 -12 -5 4 -9 1 -9 -6 0 -7 -3 -10 -6 -6 -4 3 -32 -10 -62 -30 -31
-19 -61 -36 -67 -37 -14 -3 -255 -154 -265 -167 -3 -3 -16 -12 -30 -19 -14 -7
-43 -28 -66 -47 -23 -18 -45 -33 -51 -33 -5 0 -20 -11 -33 -25 -13 -14 -29
-25 -37 -25 -7 0 -13 -4 -13 -9 0 -4 -17 -20 -37 -34 -21 -14 -55 -42 -76 -61
-21 -20 -41 -36 -44 -36 -21 0 -368 -337 -478 -465 -27 -31 -63 -72 -78 -89
-16 -17 -36 -43 -45 -58 -9 -16 -19 -28 -23 -28 -4 0 -17 -16 -29 -35 -12 -20
-27 -41 -34 -48 -6 -6 -23 -28 -36 -47 -13 -19 -27 -37 -31 -40 -3 -3 -17 -21
-30 -41 -99 -150 -130 -195 -138 -205 -5 -6 -19 -29 -30 -50 -12 -21 -35 -60
-50 -86 -104 -166 -257 -474 -347 -695 -197 -485 -295 -847 -351 -1293 -14
-115 -18 -218 -18 -495 0 -368 1 -386 66 -867 45 -335 128 -668 243 -977 41
-110 61 -157 124 -306 52 -122 236 -465 302 -565 6 -8 30 -46 54 -85 25 -38
48 -74 53 -80 4 -5 17 -23 27 -40 11 -16 23 -34 28 -40 4 -5 31 -41 59 -80 27
-38 55 -77 62 -85 7 -8 26 -33 42 -55 17 -21 37 -47 45 -55 8 -9 26 -30 39
-46 144 -174 339 -380 473 -497 l66 -58 6 103 c3 57 8 1016 11 2133 3 1117 9
2098 13 2180 8 147 33 281 111 595 65 260 188 565 315 780 47 79 144 225 173
260 7 8 36 44 64 80 102 128 249 274 384 382 55 44 110 88 123 99 12 10 22 16
22 13 0 -4 20 10 44 30 24 20 49 36 55 36 6 0 11 5 11 11 0 5 4 8 9 5 5 -4 11
-3 13 2 3 8 134 92 143 92 3 0 23 11 45 25 21 14 45 26 52 27 7 2 15 5 18 9
12 13 169 87 174 82 3 -4 6 -1 6 6 0 7 5 9 10 6 6 -3 10 -1 10 5 0 6 4 9 8 6
5 -3 41 8 79 24 39 16 81 32 94 34 13 3 26 5 29 6 3 2 8 2 13 1 4 0 7 4 7 10
0 6 6 9 13 6 6 -2 28 2 47 9 72 27 181 55 190 49 6 -3 10 -2 10 3 0 8 6 10 50
14 11 1 20 5 20 8 0 3 12 6 28 6 15 1 77 11 137 23 61 12 135 24 165 27 117
12 147 15 210 20 95 7 448 6 495 -1 22 -4 50 -7 63 -8 12 0 22 -4 22 -7 0 -3
12 -5 28 -4 15 1 27 3 27 4 0 2 10 4 23 5 12 1 22 -1 22 -6 0 -5 6 -6 14 -3 8
3 50 -1 93 -10 43 -8 89 -18 103 -20 14 -3 43 -10 65 -15 22 -6 56 -13 75 -16
47 -9 65 -13 65 -15 0 -1 12 -4 26 -6 15 -2 59 -15 99 -29 40 -14 76 -22 81
-19 5 3 9 0 9 -6 0 -6 4 -9 9 -5 5 3 12 1 16 -5 4 -6 11 -8 16 -5 5 4 9 1 9
-5 0 -6 4 -9 9 -5 6 3 40 -7 77 -21 37 -15 73 -27 81 -27 7 0 13 -4 13 -9 0
-5 5 -6 10 -3 6 3 10 1 10 -4 0 -6 3 -10 8 -9 10 2 38 -9 112 -44 36 -18 68
-31 73 -30 4 1 7 -3 7 -10 0 -6 3 -9 6 -5 4 3 31 -9 60 -28 30 -19 56 -35 59
-35 3 0 29 -16 60 -35 30 -20 57 -35 60 -35 3 0 13 -7 23 -15 30 -27 121 -95
127 -95 3 0 20 -13 38 -29 17 -16 35 -30 39 -31 24 -3 276 -253 358 -355 30
-37 60 -73 65 -79 16 -17 127 -175 152 -216 261 -429 441 -919 518 -1410 42
-267 48 -381 51 -940 2 -490 0 -558 -16 -671 -65 -430 -209 -877 -388 -1199
-131 -233 -274 -427 -442 -599 -73 -75 -240 -225 -240 -216 0 4 -15 -6 -34
-21 -58 -50 -76 -64 -82 -64 -4 0 -28 -16 -55 -36 -27 -20 -49 -32 -49 -27 0
4 -4 3 -8 -3 -4 -6 -34 -26 -67 -44 -33 -18 -66 -38 -74 -44 -8 -6 -15 -9 -15
-8 -1 5 -60 -21 -66 -29 -7 -9 -98 -42 -103 -38 -3 2 -14 -4 -24 -14 -11 -9
-23 -14 -26 -10 -4 3 -7 1 -7 -6 0 -7 -4 -10 -8 -7 -5 3 -43 -8 -86 -25 -42
-16 -81 -27 -86 -24 -6 4 -10 1 -10 -6 0 -7 -3 -9 -6 -6 -4 3 -16 1 -27 -4
-11 -6 -29 -12 -41 -14 -11 -1 -57 -12 -101 -23 -72 -19 -103 -25 -185 -38
-14 -2 -38 -6 -55 -8 -16 -3 -61 -8 -100 -12 -38 -3 -83 -8 -100 -11 -46 -7
-681 -6 -755 2 -36 4 -84 7 -107 8 -24 1 -43 4 -43 7 0 4 -17 7 -37 7 -21 1
-54 4 -73 7 -19 4 -42 7 -50 7 -8 1 -55 10 -104 20 -49 10 -92 16 -96 14 -5
-3 -10 -1 -12 4 -3 9 -43 21 -75 23 -7 1 -13 5 -13 9 0 5 -7 6 -15 3 -8 -4
-15 -2 -15 3 0 5 -6 10 -14 10 -7 0 -39 10 -71 23 -32 13 -64 23 -71 23 -8 0
-14 4 -14 9 0 4 -8 8 -18 8 -10 0 -22 3 -26 7 -4 5 -11 8 -15 8 -14 0 -156 69
-163 79 -4 6 -8 8 -8 3 0 -10 -172 82 -182 97 -4 6 -8 7 -8 2 0 -4 -16 4 -35
18 -19 15 -35 24 -35 20 0 -4 -7 1 -15 12 -8 10 -15 15 -15 10 0 -4 -16 4 -35
18 -19 15 -35 24 -35 20 0 -4 -10 5 -21 20 -12 15 -24 25 -26 22 -6 -5 -95 63
-101 77 -2 4 -9 7 -16 7 -7 0 -25 14 -42 31 l-29 30 -7 -838 c-4 -461 -8 -855
-9 -875 -2 -53 17 -100 55 -139 34 -35 63 -60 68 -59 2 1 34 -13 71 -30 37
-17 72 -28 77 -25 6 4 10 1 10 -4 0 -6 14 -11 30 -11 17 0 30 -4 30 -8 0 -4 9
-8 21 -9 12 -1 51 -12 87 -24 37 -12 74 -23 82 -24 8 -1 22 -5 31 -9 9 -4 29
-9 45 -11 16 -2 31 -4 34 -5 3 -2 8 -2 13 -1 4 0 7 -4 7 -10 0 -5 4 -8 9 -5 4
3 57 -5 116 -19 60 -13 112 -22 116 -19 4 2 11 0 14 -6 4 -6 20 -9 36 -6 16 2
29 1 29 -4 0 -5 11 -7 25 -5 14 1 28 -1 30 -5 3 -4 18 -6 35 -5 16 1 30 0 30
-4 0 -3 15 -6 33 -7 17 -1 70 -5 117 -10 104 -11 876 -12 980 -1 41 4 93 10
115 13 22 4 55 7 73 7 17 1 32 4 32 8 0 3 12 5 28 4 15 -1 31 1 37 4 5 3 23 6
39 7 25 2 118 21 196 40 14 4 35 7 48 8 12 0 22 3 22 6 0 3 8 7 18 8 21 2 57
10 57 12 0 2 15 5 54 14 56 12 207 59 217 67 6 5 14 6 17 2 4 -3 13 0 22 7 8
7 15 10 15 7 0 -4 30 5 68 20 37 14 74 27 82 28 8 2 17 4 20 5 3 1 8 2 13 1 4
0 7 4 7 10 0 5 4 8 8 5 7 -4 22 1 120 45 24 11 48 17 53 14 5 -4 9 -1 9 4 0 6
5 11 11 11 7 0 50 18 97 40 46 22 95 43 108 46 13 3 24 11 24 17 0 6 3 7 7 4
3 -4 34 8 69 27 34 19 65 32 68 29 3 -4 6 0 6 7 0 7 3 11 6 7 3 -3 35 12 70
34 35 21 71 39 79 39 8 0 15 5 15 10 0 6 5 10 11 10 6 0 30 14 54 30 24 17 48
30 54 30 6 0 11 5 11 10 0 6 4 9 8 8 9 -3 222 133 246 157 8 9 18 15 21 15 8
-1 79 53 88 68 5 7 12 10 16 8 4 -3 21 8 36 24 16 17 32 30 37 30 4 0 25 16
47 36 21 20 43 37 47 37 5 1 16 8 24 17 8 9 57 55 109 101 117 105 237 224
321 319 36 40 72 81 80 89 9 9 42 50 75 91 33 41 62 77 65 80 3 3 17 21 30 40
13 19 27 37 30 40 3 3 33 43 66 90 227 322 419 675 594 1090 173 410 282 820
337 1260 25 204 25 772 0 975 -9 77 -21 160 -27 185 -5 25 -16 113 -25 195
-26 241 -82 495 -160 730 -26 80 -101 280 -115 310 -5 11 -21 49 -35 85 -15
36 -32 79 -40 95 -7 17 -23 53 -35 80 -41 92 -138 281 -209 409 -66 117 -188
315 -201 326 -3 3 -17 23 -30 45 -13 22 -27 42 -30 45 -3 3 -17 21 -30 40 -13
19 -27 37 -30 40 -3 3 -17 21 -30 40 -55 80 -189 242 -287 347 -23 24 -57 61
-75 81 -72 78 -358 343 -381 351 -6 2 -27 19 -47 37 -19 18 -55 47 -80 65 -25
17 -57 43 -72 57 -16 14 -28 22 -28 16 0 -5 -4 -5 -8 1 -12 17 -90 75 -101 75
-5 0 -11 3 -13 8 -3 8 -73 54 -188 125 -41 26 -81 51 -87 57 -7 6 -13 8 -13 5
0 -3 -24 10 -54 29 -30 19 -57 32 -60 29 -3 -4 -6 -1 -6 6 0 7 -4 10 -9 6 -6
-3 -14 3 -20 12 -6 10 -11 14 -11 10 0 -5 -15 0 -32 11 -67 41 -108 61 -108
54 0 -4 -4 -2 -8 3 -8 11 -154 82 -156 76 0 -3 -19 7 -42 22 -38 24 -119 53
-136 49 -5 -1 -8 3 -8 9 0 5 -4 7 -10 4 -5 -3 -10 -1 -10 6 0 7 -3 10 -6 7 -3
-4 -39 9 -81 28 -41 19 -79 32 -84 29 -5 -4 -9 -1 -9 5 0 6 -4 8 -10 5 -5 -3
-10 -2 -10 3 0 5 -6 9 -12 9 -7 0 -50 15 -96 32 -45 17 -84 31 -87 31 -3 0
-10 2 -17 5 -7 2 -31 9 -53 16 -22 7 -47 13 -55 14 -8 1 -46 12 -85 24 -66 21
-107 30 -147 34 -10 1 -18 4 -18 8 0 4 -9 5 -20 2 -11 -3 -20 -1 -20 3 0 5
-12 9 -27 10 -16 0 -77 11 -136 23 -60 12 -115 20 -123 17 -8 -3 -14 -2 -14 3
0 9 -11 10 -102 13 -27 1 -48 5 -48 8 0 3 -19 6 -43 7 -123 5 -191 14 -205 25
-12 10 -14 10 -8 1 6 -10 -19 -13 -108 -13 -71 0 -116 4 -116 10 0 6 -9 10
-20 10 -11 0 -20 -4 -20 -9z"/>
<path d="M4820 7414 c-52 -7 -110 -17 -128 -23 -18 -5 -40 -7 -48 -4 -8 3 -14
1 -14 -4 0 -5 -14 -10 -31 -11 -18 -1 -37 -6 -43 -9 -6 -4 -15 -8 -21 -9 -5
-1 -33 -11 -61 -22 -29 -12 -55 -18 -58 -15 -3 4 -6 1 -6 -5 0 -6 -17 -16 -38
-21 -20 -6 -63 -26 -94 -45 -31 -18 -59 -31 -62 -28 -3 3 -6 0 -6 -6 0 -7 -7
-12 -15 -12 -8 0 -15 -4 -15 -10 0 -5 -5 -10 -10 -10 -10 0 -68 -37 -80 -51
-3 -3 -12 -10 -21 -15 -19 -11 -152 -128 -186 -164 -42 -44 -180 -243 -231
-331 -152 -264 -263 -561 -321 -859 -52 -263 -54 -301 -58 -1190 -2 -459 0
-920 4 -1025 10 -219 14 -231 117 -369 66 -88 274 -299 287 -291 4 3 9 2 11
-3 6 -13 98 -85 98 -76 0 5 5 1 11 -8 5 -10 14 -18 19 -18 5 0 36 -17 67 -37
32 -21 61 -36 66 -35 4 1 7 -3 7 -10 0 -6 3 -9 6 -5 3 3 34 -10 68 -29 35 -19
66 -31 69 -27 4 3 7 1 7 -6 0 -6 6 -11 13 -10 6 1 23 -2 37 -8 78 -32 173 -62
181 -57 5 3 9 0 9 -6 0 -7 7 -10 15 -7 8 4 16 3 19 -1 2 -4 19 -9 37 -10 17
-1 37 -5 42 -9 6 -4 23 -8 37 -10 14 -1 72 -9 130 -17 147 -19 555 -14 668 8
45 9 87 14 92 11 6 -3 10 -1 10 5 0 6 8 10 18 9 9 -1 28 3 42 8 14 6 30 8 36
6 7 -2 15 1 19 6 3 6 11 9 16 6 5 -4 9 -1 9 5 0 6 4 9 9 6 5 -3 31 3 57 13 79
31 89 34 97 33 4 -1 7 3 7 9 0 5 5 7 10 4 6 -3 10 -1 10 6 0 7 3 9 6 6 6 -5
158 68 174 83 10 10 46 31 63 36 9 4 17 10 17 15 0 5 11 14 25 19 14 5 25 14
25 20 0 5 5 10 11 10 27 0 222 185 290 275 136 181 255 419 345 693 128 391
167 721 139 1189 -38 655 -104 998 -262 1363 -81 186 -216 417 -314 535 -101
121 -271 266 -392 334 -121 67 -147 81 -147 75 0 -4 -6 -2 -13 4 -20 17 -178
73 -188 66 -5 -3 -9 0 -9 6 0 7 -7 10 -15 6 -8 -3 -15 -2 -15 3 0 4 -6 8 -12
9 -30 4 -63 10 -63 12 0 2 -12 4 -75 14 -180 29 -344 33 -500 10z"/>
</g>
</svg>
