<svg xmlns="http://www.w3.org/2000/svg" viewBox="0 0 337.8 78.31"><defs><style>.a{fill:#fff;}</style></defs><title>logo_white</title><path class="a" d="M144.35,415.14v32h-5.8V376.18a1.94,1.94,0,0,1,.43-0.09c8.68,0,17.35-.05,26,0.06a26.67,26.67,0,0,1,11.48,2.6c6.58,3.22,9.53,8.74,9.73,15.84,0.23,8.33-3.66,14.18-11.34,17.41l-0.82.37,1.78,0.62c6.34,2.13,9.53,6.76,10.11,13.21,0.31,3.41.15,6.87,0.24,10.3s0.59,6.61,3.05,9.21a3.92,3.92,0,0,1,.42,1.44c-2.09,0-4,0-5.82,0a1.88,1.88,0,0,1-1.08-.8,12.27,12.27,0,0,1-2.26-6.85c-0.22-3.3-.25-6.63-0.26-9.94,0-8.33-5-13.91-13.41-14.28-7.3-.33-14.62-0.18-21.94-0.23A3.48,3.48,0,0,0,144.35,415.14Zm0.07-5.18c4.59,0,9,0,13.45,0,3,0,6.08,0,9.09-.31a14.86,14.86,0,0,0,9.84-4.4c3.44-3.68,4-8.12,3.23-12.85a12,12,0,0,0-7.59-9.59,23.28,23.28,0,0,0-9.13-1.67c-5.87,0-11.75,0-17.62,0h-1.27V410Z" transform="translate(-138.56 -369.95)"/><path class="a" d="M268.79,435.34c3.76,3.42,8,4.22,12.6,3.66a12,12,0,0,0,10.19-8.06A27.59,27.59,0,0,0,291,409c-2.71-6.05-8-8.87-14.81-8.4A14.57,14.57,0,0,0,263,411.11a26.88,26.88,0,0,0-1.09,7.06c-0.14,7.08,0,14.16,0,21.23v1.26l-0.29.13c-0.83-1-1.71-2-2.48-3-8.44-11.32-7.34-28.43,2.44-38.26,9.25-9.3,23.07-9.21,32.2.21,11.42,11.79,10.37,32.55-2.27,42.75-6.42,5.18-13.65,6.44-21.52,3.71a1.52,1.52,0,0,1-1.2-1.73C268.83,441.54,268.79,438.59,268.79,435.34Z" transform="translate(-138.56 -369.95)"/><path class="a" d="M208.76,447.09h-5.85V371h5.83v31.51c1.79-1.83,3.37-4,5.41-5.44,6.36-4.6,13.35-5.08,20.43-1.92,4.85,2.17,7.08,6.54,8,11.55a43.5,43.5,0,0,1,.74,7.62c0.08,10.64,0,21.27,0,31.91v0.8h-6c0-.52,0-1,0-1.45,0-11.08,0-22.15-.08-33.23a22.59,22.59,0,0,0-.93-5.77,10.85,10.85,0,0,0-10-8.19A16.26,16.26,0,0,0,209,409.28a5.07,5.07,0,0,0-.25,1.75q0,17.27,0,34.55v1.5Z" transform="translate(-138.56 -369.95)"/><path class="a" d="M408.72,420.82c0,5.69-.91,11.17-3.82,16.15-4.69,8-11.78,11.56-21,11.2-12.67-.5-19.82-10.08-21.45-19.84-1.17-7-1.12-14,1.62-20.76,5.91-14.52,24.34-19.16,35.92-9a25,25,0,0,1,8.21,15.95C408.51,416.59,408.56,418.72,408.72,420.82Zm-41-.13a28.85,28.85,0,0,0,2.13,11.82c4,9.37,13.63,13.3,22.53,9.15,4.4-2.05,6.93-5.77,8.65-10.12,1.87-4.73,1.93-9.68,1.56-14.65a25.08,25.08,0,0,0-3.46-10.73c-6.06-10.53-21.84-10.34-27.72-.14A28.44,28.44,0,0,0,367.72,420.7Z" transform="translate(-138.56 -369.95)"/><path class="a" d="M317.27,432.28c0.16,0.86.28,1.6,0.44,2.34a8.68,8.68,0,0,0,4.39,6,20.35,20.35,0,0,0,17.58,1.16,9,9,0,0,0,5.86-6.08c1-3.55-.64-7.27-4.18-9.5-3.06-1.93-6.51-2.77-10-3.57a45.23,45.23,0,0,1-12.13-4.33c-7.49-4.17-7.39-13.89-2.94-18.84a17.52,17.52,0,0,1,10.53-5.7c5.43-.88,10.79-0.7,15.81,1.77,4.88,2.4,7.95,6.2,8.42,11.8,0.15,1.8.13,1.84-1.63,1.84H346a2.16,2.16,0,0,1-.31-0.06,3,3,0,0,1-.2-0.61c-0.63-5.19-3.88-8.09-8.6-9.48a19,19,0,0,0-10.89.15c-4.25,1.26-6.89,4.71-6.79,8.78a7.43,7.43,0,0,0,4.06,6.5,32.89,32.89,0,0,0,9.38,3.18,46.43,46.43,0,0,1,12.77,4.67c8.51,4.82,8.19,17.18.38,22.28-4.61,3-9.67,3.78-15,3.62A23.24,23.24,0,0,1,320,445.6c-4.41-2.44-7.56-5.86-8.17-11.12,0-.24,0-0.48-0.07-0.72-0.16-1.09.16-1.62,1.4-1.52S315.83,432.28,317.27,432.28Z" transform="translate(-138.56 -369.95)"/><path class="a" d="M425,399.09h-8.69v-4.82H425c0-2.89-.11-5.68,0-8.46a27.38,27.38,0,0,1,.9-6A13,13,0,0,1,438,370a22.47,22.47,0,0,1,8.86.9l-0.7,4.65c-1.63-.16-3.17-0.43-4.71-0.45-6-.08-9.4,2.54-10.18,8.49-0.45,3.44-.08,7-0.08,10.61h12.28v4.87H430.92v48H425v-48Z" transform="translate(-138.56 -369.95)"/><path class="a" d="M475.61,442.59c0.26,1.24.56,2.44,0.74,3.66a1,1,0,0,1-.5.86c-4,1.23-8.09,1.76-12.1.21-4.2-1.61-5.91-5.14-6.52-9.32a31.23,31.23,0,0,1-.29-4.42q0-16.43,0-32.86v-1.56h-9.06v-4.82h9V380.83h5.92v13.43h11.6v4.83H462.92c0,0.52-.07.94-0.07,1.35,0,10.79,0,21.59,0,32.38a24.11,24.11,0,0,0,.56,5.22c0.76,3.32,3.22,5.1,6.66,5C471.88,443,473.67,442.74,475.61,442.59Z" transform="translate(-138.56 -369.95)"/><path class="a" d="M268.79,422.69c0-3.64-.18-7.28,1.28-10.74,0.94-2.21,2.08-4.26,4.4-5.29a7.67,7.67,0,0,1,9.65,3.24,20.53,20.53,0,0,1,2.39,10,18.79,18.79,0,0,1-1.46,8.66,8.11,8.11,0,0,1-7.23,5.08,8.9,8.9,0,0,1-8.6-4.13,3.13,3.13,0,0,1-.41-1.57C268.76,426.21,268.79,424.45,268.79,422.69Z" transform="translate(-138.56 -369.95)"/></svg>